<?xml version="1.0" encoding="utf-8"?><svg width="84" height="78" viewBox="0 0 84 78" xmlns="http://www.w3.org/2000/svg" xmlns:xlink="http://www.w3.org/1999/xlink"><svg width="42" height="42" viewBox="-5 -5 42 42" id="params"><defs><style>.acls-1{fill:#f4b60d;fill-rule:evenodd}</style></defs><path id="aparams.svg" class="acls-1" d="M912 754.021V751a3 3 0 0 0-6 0v3.021a4.955 4.955 0 0 0 0 7.955V777a3 3 0 1 0 6 0v-15.024a4.955 4.955 0 0 0 0-7.955zM908 751a1 1 0 0 1 2 0v2.1a5.1 5.1 0 0 0-2 0V751zm2 26a1 1 0 1 1-2 0v-14.1a4.953 4.953 0 0 0 2 0V777zm1.865-18.16c-.016.053-.03.106-.049.159a2.912 2.912 0 0 1-.378.736c0 .006-.009.01-.013.016a2.977 2.977 0 0 1-.617.626.022.022 0 0 1-.009.008 2.988 2.988 0 0 1-3.6 0 .031.031 0 0 1-.01-.008 3 3 0 0 1-.616-.626c0-.006-.01-.01-.014-.016a2.979 2.979 0 0 1-.378-.736 3.202 3.202 0 0 1-.048-.159 2.684 2.684 0 0 1 0-1.681c.015-.053.03-.106.048-.157a3.027 3.027 0 0 1 .378-.738c0-.006.01-.01.014-.015a3.055 3.055 0 0 1 .616-.628.036.036 0 0 0 .01-.007 3.077 3.077 0 0 1 .8-.43 2.824 2.824 0 0 1 2 0 3.077 3.077 0 0 1 .8.43.055.055 0 0 0 .009.007 3.035 3.035 0 0 1 .617.628l.013.015a2.959 2.959 0 0 1 .378.738c.019.051.033.1.049.157a2.684 2.684 0 0 1 0 1.68zM934 754.021V751a3 3 0 0 0-6 0v3.021a4.955 4.955 0 0 0 0 7.955V777a3 3 0 1 0 6 0v-15.024a4.955 4.955 0 0 0 0-7.955zM930 751a1 1 0 0 1 2 0v2.1a5.1 5.1 0 0 0-2 0V751zm2 26a1 1 0 1 1-2 0v-14.1a4.953 4.953 0 0 0 2 0V777zm1.865-18.16c-.016.053-.03.106-.049.159a2.912 2.912 0 0 1-.378.736c0 .006-.009.01-.013.016a2.977 2.977 0 0 1-.617.626.022.022 0 0 1-.009.008 2.977 2.977 0 0 1-.8.43 2.988 2.988 0 0 1-2.8-.43.031.031 0 0 1-.01-.008 3 3 0 0 1-.616-.626c0-.006-.01-.01-.014-.016a2.979 2.979 0 0 1-.378-.736 3.202 3.202 0 0 1-.048-.159 2.684 2.684 0 0 1 0-1.681c.015-.053.03-.106.048-.157a3.027 3.027 0 0 1 .378-.738c0-.006.01-.01.014-.015a3.055 3.055 0 0 1 .616-.628.036.036 0 0 0 .01-.007 3.077 3.077 0 0 1 .8-.43 2.824 2.824 0 0 1 2 0 3.093 3.093 0 0 1 .8.43.055.055 0 0 0 .009.007 3.035 3.035 0 0 1 .617.628l.013.015a2.959 2.959 0 0 1 .378.738c.019.051.033.1.049.157a2.684 2.684 0 0 1 0 1.68zM923 766.021V751a3 3 0 0 0-6 0v15.021a4.955 4.955 0 0 0 0 7.955V777a3 3 0 1 0 6 0v-3.023a4.955 4.955 0 0 0 0-7.956zM919 751a1 1 0 0 1 2 0v14.1a5.1 5.1 0 0 0-2 0V751zm2 26a1 1 0 1 1-2 0v-2.1a4.953 4.953 0 0 0 2 0v2.1zm1.865-6.16c-.015.053-.03.106-.049.159a2.945 2.945 0 0 1-.378.736.093.093 0 0 1-.013.015 2.958 2.958 0 0 1-.617.627.022.022 0 0 1-.009.008A3.118 3.118 0 0 1 920 773a3.118 3.118 0 0 1-1.8-.616.031.031 0 0 1-.01-.008 2.978 2.978 0 0 1-.616-.627s-.01-.009-.014-.015a2.979 2.979 0 0 1-.378-.736 3.202 3.202 0 0 1-.048-.159 2.684 2.684 0 0 1 0-1.681c.015-.053.03-.106.048-.157a3.027 3.027 0 0 1 .378-.738c0-.006.01-.01.014-.015a3.026 3.026 0 0 1 .616-.627.087.087 0 0 0 .01-.008 3.077 3.077 0 0 1 .8-.43 2.824 2.824 0 0 1 2 0 3.093 3.093 0 0 1 .8.43l.009.008a3.006 3.006 0 0 1 .617.627.093.093 0 0 1 .013.015 2.992 2.992 0 0 1 .378.738c.019.051.034.1.049.157a2.684 2.684 0 0 1-.001 1.681z" transform="translate(-904 -748)"/></svg><svg width="42" height="42" viewBox="-5 -5 42 42" id="settings" x="42"><defs><style>.bcls-1{fill:#f4b60d;fill-rule:evenodd}</style></defs><path id="bsettings.svg" class="bcls-1" d="M533.391 760.678l-3.065-.614a12.092 12.092 0 0 0-.536-1.289l1.735-2.6a2 2 0 0 0-.25-2.523l-1.923-1.924a2 2 0 0 0-2.524-.25l-2.6 1.736a11.994 11.994 0 0 0-1.29-.537l-.614-3.065A2 2 0 0 0 520.36 748h-2.72a2 2 0 0 0-1.961 1.608l-.615 3.065a12.1 12.1 0 0 0-1.289.537l-2.6-1.736a2 2 0 0 0-2.524.25l-1.924 1.924a2 2 0 0 0-.249 2.523l1.735 2.6a11.9 11.9 0 0 0-.536 1.29l-3.066.613a2 2 0 0 0-1.611 1.965v2.721a2 2 0 0 0 1.608 1.961l3.066.614a12.092 12.092 0 0 0 .536 1.289l-1.735 2.6a2 2 0 0 0 .249 2.523l1.924 1.924a2 2 0 0 0 2.524.25l2.6-1.735a11.989 11.989 0 0 0 1.29.536l.614 3.065A2 2 0 0 0 517.64 780h2.72a2 2 0 0 0 1.961-1.609l.614-3.065a12.023 12.023 0 0 0 1.29-.536l2.6 1.735a2 2 0 0 0 2.524-.25l1.923-1.924a2 2 0 0 0 .25-2.523l-1.735-2.6a11.989 11.989 0 0 0 .536-1.29l3.065-.613A2 2 0 0 0 535 765.36v-2.721a2 2 0 0 0-1.609-1.961zm-3.457 5.295a2 2 0 0 0-1.5 1.3 10.049 10.049 0 0 1-.447 1.075 2 2 0 0 0 .136 1.982l1.735 2.6-1.924 1.924-2.6-1.735a2 2 0 0 0-1.981-.137 10 10 0 0 1-1.075.448 2 2 0 0 0-1.3 1.5l-.618 3.07h-2.72l-.614-3.067a2 2 0 0 0-1.3-1.5 9.981 9.981 0 0 1-1.076-.447 1.993 1.993 0 0 0-1.981.136l-2.6 1.735-1.923-1.924 1.735-2.6a2 2 0 0 0 .137-1.981 10.1 10.1 0 0 1-.449-1.075 2 2 0 0 0-1.5-1.3L505 765.36v-2.721l3.066-.613a2 2 0 0 0 1.5-1.3 10.055 10.055 0 0 1 .448-1.075 2 2 0 0 0-.136-1.981l-1.735-2.6 1.923-1.924 2.6 1.736a2 2 0 0 0 1.98.136 10.02 10.02 0 0 1 1.076-.448 2 2 0 0 0 1.3-1.5l.618-3.07h2.72l.614 3.066a2 2 0 0 0 1.3 1.5 9.964 9.964 0 0 1 1.075.447 2 2 0 0 0 1.982-.135l2.6-1.736 1.924 1.924-1.735 2.6a2 2 0 0 0-.137 1.98 10.09 10.09 0 0 1 .448 1.075 2 2 0 0 0 1.5 1.3l3.069.618v2.721zM519 757a7 7 0 1 0 7 7 7 7 0 0 0-7-7zm0 13.125a6.125 6.125 0 1 1 6.125-6.125 6.127 6.127 0 0 1-6.125 6.125zM519 760a4 4 0 1 0 4 4 4 4 0 0 0-4-4zm0 7a3 3 0 1 1 3-3 3 3 0 0 1-3 3z" transform="translate(-503 -748)"/></svg><svg width="26" height="26" viewBox="-5 -5 26 26" id="skype" x="42" y="42"><defs><style>.ccls-1{fill-rule:evenodd;opacity:.2}</style></defs><path id="cskype.svg" class="ccls-1" d="M1535.83 57.083a7.493 7.493 0 0 0 .09-1.065 7.085 7.085 0 0 0-8.21-7.042 4.063 4.063 0 0 0-5.89 5.531 6.844 6.844 0 0 0-.16 1.511 7.12 7.12 0 0 0 8.6 6.978 4.064 4.064 0 0 0 5.57-5.913zm-3.71 2.041a2.775 2.775 0 0 1-1.24.937 4.928 4.928 0 0 1-1.92.34 4.6 4.6 0 0 1-2.2-.464 2.775 2.775 0 0 1-1-.891 1.889 1.889 0 0 1-.39-1.082.7.7 0 0 1 .23-.522.834.834 0 0 1 .59-.218.726.726 0 0 1 .49.17 1.307 1.307 0 0 1 .34.5 3.687 3.687 0 0 0 .37.661 1.487 1.487 0 0 0 .57.438 2.221 2.221 0 0 0 .95.173 2.294 2.294 0 0 0 1.32-.347 1.024 1.024 0 0 0 .51-.869.889.889 0 0 0-.28-.669 1.787 1.787 0 0 0-.71-.394c-.28-.09-.67-.186-1.15-.288a9.249 9.249 0 0 1-1.63-.488 2.549 2.549 0 0 1-1.04-.764 1.849 1.849 0 0 1-.38-1.2 1.946 1.946 0 0 1 .4-1.216 2.519 2.519 0 0 1 1.18-.817 5.145 5.145 0 0 1 1.8-.285 4.827 4.827 0 0 1 1.44.188 3.061 3.061 0 0 1 1 .5 2.1 2.1 0 0 1 .59.659 1.445 1.445 0 0 1 .18.671.737.737 0 0 1-.23.541.751.751 0 0 1-.57.24.712.712 0 0 1-.48-.145 1.737 1.737 0 0 1-.35-.472 2.232 2.232 0 0 0-.59-.732 1.852 1.852 0 0 0-1.11-.263 2.046 2.046 0 0 0-1.14.285.811.811 0 0 0-.43.686.7.7 0 0 0 .14.43 1.277 1.277 0 0 0 .41.31 3.117 3.117 0 0 0 .52.205c.18.047.47.12.88.214q.75.164 1.38.362a4.44 4.44 0 0 1 1.05.48 2.008 2.008 0 0 1 .67.716 2.054 2.054 0 0 1 .25 1.061 2.3 2.3 0 0 1-.42 1.359z" transform="translate(-1521 -48)"/></svg><svg width="42" height="36" viewBox="-5 -5 42 36" id="truck" y="42"><defs><style>.dcls-1{fill:#f4b60d;fill-rule:evenodd}</style></defs><path id="dtruck.svg" class="dcls-1" d="M1327.83 759.445a.993.993 0 0 0-.83-.445h-1a1 1 0 0 0-1 1v6a1 1 0 0 0 1 1h4a1 1 0 0 0 1-1v-1.5a1 1 0 0 0-.17-.555zM1330 766h-4v-6h1l3 4.5v1.5zm4.5-2.665l-4-6A3.011 3.011 0 0 0 1328 756h-4v-2a3.006 3.006 0 0 0-3-3h-15a3.006 3.006 0 0 0-3 3v11a3.005 3.005 0 0 0 3 3v3a3.006 3.006 0 0 0 3 3h1.14a3.984 3.984 0 0 0 7.72 0h5.28a3.984 3.984 0 0 0 7.72 0h1.14a3.006 3.006 0 0 0 3-3v-6a2.989 2.989 0 0 0-.5-1.665zM1306 766a1 1 0 0 1-1-1v-11a1 1 0 0 1 1-1h15a1 1 0 0 1 1 1v11a1 1 0 0 1-1 1h-15zm8 9a2 2 0 1 1 2-2 2 2 0 0 1-2 2zm13 0a2 2 0 1 1 2-2 2 2 0 0 1-2 2zm6-4a1 1 0 0 1-1 1h-1.14a3.983 3.983 0 0 0-7.72 0h-5.28a3.983 3.983 0 0 0-7.72 0H1309a1 1 0 0 1-1-1v-3h13a3.005 3.005 0 0 0 3-3v-7h4a1 1 0 0 1 .83.445l4 6a1 1 0 0 1 .17.555v6z" transform="translate(-1303 -751)"/></svg></svg>